:SAMPLES-PER-SECOND 30
:FULLY-SPECIFIED
:DEGREES
342
root  -30.9381 38.0019 -2.1357 -177.937 64.3373 175.14
RightUpLeg  -25.5218 -21.598 -16.179
RightLeg  9.66467 -3.72089 0.385803
RightFoot  -2.71323 -0.903464 11.891
RightToes  -1.81608e-008 0 -3.6325e-017
Spine  13.5549 -1.12392 -27.5968
Spine1  -6.58093 -5.8842 19.4918
HEad  -12.9353 -11.3994 5.34914
LeftShoulder1  0.0392127 3.34594 -18.2236
LeftArm  6.18417 -17.0462 -46.4973
LeftForeArm  3.59354 -61.4931 -21.0382
LeftHand  -0.106711 7.21565 -3.93074
RightShoulder  -0.511675 -5.17368 23.823
RightArm  -4.58752 -15.9895 36.218
RightForeArm  12.479 73.8957 44.9529
RightHand  -0.269755 4.33002 -3.50107
LeftUpLeg  -14.3429 13.8475 16.476
LeftLeg  2.00153 -20.8061 -0.226173
LeftFoot  1.7758 2.50087 -21.6026
LeftToes  1.81866e-011 -6.13092e-011 2.52013e-011
343
root  -30.1935 37.6971 -1.50505 -179.331 60.9023 172.697
RightUpLeg  -26.9007 -21.6185 -16.7019
RightLeg  12.6643 -2.55786 -0.0918123
RightFoot  2.69056 -1.1953 9.70606
RightToes  -1.81608e-008 0 -3.6325e-017
Spine  14.3066 -1.1082 -27.6027
Spine1  -6.83303 -6.25749 19.8748
HEad  -13.4582 -13.1846 5.90453
LeftShoulder1  0.0493616 3.30365 -18.1239
LeftArm  6.90932 -18.3079 -47.2454
LeftForeArm  3.42709 -61.4549 -21.018
LeftHand  -0.100986 7.15208 -3.75961
RightShoulder  -0.56698 -5.35229 23.9008
RightArm  -5.97229 -16.7255 35.8129
RightForeArm  15.832 74.7511 48.3929
RightHand  -0.2348 4.48514 -3.04419
LeftUpLeg  -14.813 13.5342 15.9107
LeftLeg  -0.429371 -23.2809 0.471415
LeftFoot  2.15653 2.82134 -23.6623
LeftToes  1.81866e-011 -6.13092e-011 2.52013e-011
344
root  -29.4682 37.2488 -0.699244 179.273 58.3586 172.052
RightUpLeg  -29.4266 -22.5367 -16.6356
RightLeg  20.5817 -0.822409 -0.634649
RightFoot  7.41692 -1.59147 9.87241
RightToes  -1.81608e-008 0 -3.6325e-017
Spine  17.21 -0.288228 -26.0194
Spine1  -7.44531 -5.70644 18.6149
HEad  -15.6036 -15.2481 6.36247
LeftShoulder1  -0.0158892 3.56684 -18.3681
LeftArm  7.00975 -19.9577 -48.214
LeftForeArm  3.70813 -61.5852 -21.1175
LeftHand  -0.130108 7.7795 -3.94685
RightShoulder  -0.54908 -5.30084 23.7668
RightArm  -7.72855 -16.4844 35.8349
RightForeArm  18.5223 75.2806 50.8198
RightHand  -0.25039 4.47286 -3.23042
LeftUpLeg  -14.595 14.0982 16.7734
LeftLeg  -0.474505 -26.3578 0.42405
LeftFoot  1.46389 2.88959 -25.4524
LeftToes  1.81866e-011 -6.13092e-011 2.52013e-011
345
root  -28.7444 36.8191 -0.0493344 179.548 56.7373 172.668
RightUpLeg  -32.5723 -23.3544 -15.6717
RightLeg  29.3248 -0.517223 -0.551401
RightFoot  3.28226 -0.955899 7.6397
RightToes  -1.81608e-008 0 -3.6325e-017
Spine  18.311 -0.459131 -22.2471
Spine1  -6.65427 -5.17768 14.9089
HEad  -18.5876 -16.2749 6.8859
LeftShoulder1  0.102692 3.08872 -18.0676
LeftArm  5.59325 -20.3903 -49.1616
LeftForeArm  4.58125 -61.9154 -21.3548
LeftHand  -0.153128 8.07989 -4.43394
RightShoulder  -0.492557 -5.11765 23.6851
RightArm  -9.24026 -14.9829 35.474
RightForeArm  20.4443 75.6028 52.3951
RightHand  -0.191645 4.35524 -2.56365
LeftUpLeg  -15.1497 14.6348 17.9982
LeftLeg  0.513216 -28.434 0.44191
LeftFoot  0.492883 2.78542 -26.4726
LeftToes  1.81866e-011 -6.13092e-011 2.52013e-011
346
root  -28.0839 36.4428 0.626384 -179.51 55.415 173.434
RightUpLeg  -35.0894 -24.4149 -14.0379
RightLeg  35.004 -0.484326 -0.618988
RightFoot  0.287277 -0.642501 6.31219
RightToes  -1.81608e-008 0 -3.6325e-017
Spine  18.8568 -0.621754 -20.112
Spine1  -6.02679 -5.20786 14.5989
HEad  -20.2418 -16.7443 7.01313
LeftShoulder1  0.141806 2.92782 -17.9636
LeftArm  4.50378 -20.5857 -49.7658
LeftForeArm  4.32726 -61.9524 -21.4205
LeftHand  -0.132942 8.26909 -3.28434
RightShoulder  -0.439776 -4.953 23.4472
RightArm  -9.62758 -11.3597 34.6476
RightForeArm  17.2841 74.9638 49.2145
RightHand  -0.178088 3.97175 -2.47544
LeftUpLeg  -15.5372 15.2573 19.2979
LeftLeg  -0.26919 -29.8004 1.15362
LeftFoot  0.396932 2.87792 -27.5229
LeftToes  1.81866e-011 -6.13092e-011 2.52013e-011
347
root  -27.4968 36.0732 1.34911 179.628 54.8517 172.261
RightUpLeg  -37.6868 -24.8186 -13.3014
RightLeg  40.2499 -0.575776 -0.803336
RightFoot  -2.8296 -0.378557 4.8401
RightToes  -1.81608e-008 0 -3.6325e-017
Spine  20.0142 -0.188686 -19.5889
Spine1  -6.43563 -5.04137 15.3789
HEad  -20.4216 -17.4601 7.481
LeftShoulder1  0.199696 2.69232 -17.9475
LeftArm  3.9887 -20.6329 -50.1623
LeftForeArm  3.55887 -61.7053 -21.2525
LeftHand  -0.102543 8.11906 -2.31974
RightShoulder  -0.368505 -4.7353 22.9196
RightArm  -10.7658 -9.38741 34.8383
RightForeArm  16.1138 74.6686 47.8824
RightHand  -0.198629 4.39048 -2.6404
LeftUpLeg  -15.1407 15.2313 19.7463
LeftLeg  -1.79062 -29.7131 2.27114
LeftFoot  1.05735 3.10955 -28.1642
LeftToes  1.81866e-011 -6.13092e-011 2.52013e-011
348
root  -26.9095 35.64 1.9898 178.07 55.5233 170.638
RightUpLeg  -40.092 -23.8918 -12.9292
RightLeg  45.2282 -0.622832 -0.982608
RightFoot  -6.05541 -0.213332 3.69097
RightToes  -1.81608e-008 0 -3.6325e-017
Spine  20.6584 -0.0262548 -18.2871
Spine1  -6.35835 -4.58949 13.8974
HEad  -21.1853 -17.7706 7.48176
LeftShoulder1  0.240973 2.5246 -17.9482
LeftArm  3.1018 -20.7934 -49.7083
LeftForeArm  3.32916 -61.8356 -21.4081
LeftHand  -0.125166 8.41552 -2.92515
RightShoulder  -0.307885 -4.54373 22.5001
RightArm  -11.8012 -7.24397 35.542
RightForeArm  14.7879 74.3866 46.74
RightHand  -0.233045 4.84014 -2.93857
LeftUpLeg  -14.3892 15.65 20.5731
LeftLeg  -1.63071 -29.4468 2.24754
LeftFoot  0.654866 3.09111 -28.8971
LeftToes  1.81866e-011 -6.13092e-011 2.52013e-011
349
root  -26.339 35.2403 2.49526 177.122 56.4235 169.722
RightUpLeg  -41.9629 -22.9522 -12.1713
RightLeg  49.2531 -0.581234 -1.07325
RightFoot  -9.1765 -0.107659 2.52641
RightToes  -1.81608e-008 0 -3.6325e-017
Spine  21.0817 -0.297948 -16.0555
Spine1  -6.24293 -4.37629 12.2434
HEad  -21.3675 -17.4328 6.74915
LeftShoulder1  0.206358 2.65733 -17.7094
LeftArm  1.87968 -20.506 -49.797
LeftForeArm  3.62647 -61.8382 -21.3792
LeftHand  -0.102512 7.40471 -3.27898
RightShoulder  -0.288236 -4.47859 22.4063
RightArm  -11.9077 -5.0018 35.5578
RightForeArm  14.5156 74.4099 46.9312
RightHand  -0.311479 4.73292 -3.86568
LeftUpLeg  -13.2997 16.386 21.8733
LeftLeg  -1.71229 -29.3703 2.23704
LeftFoot  -0.283421 2.99679 -30.2864
LeftToes  1.81866e-011 -6.13092e-011 2.52013e-011
350
root  -25.8362 34.8638 2.95303 175.522 57.5718 168.355
RightUpLeg  -43.2762 -21.5783 -11.8847
RightLeg  52.7083 -0.528014 -1.1235
RightFoot  -12.2082 -0.065318 2.30556
RightToes  -1.81608e-008 0 -3.6325e-017
Spine  21.9295 -0.450628 -14.0641
Spine1  -6.69633 -4.15441 11.2632
HEad  -21.352 -16.704 5.24371
LeftShoulder1  0.218584 2.62118 -18.1193
LeftArm  0.533972 -19.8314 -49.7314
LeftForeArm  3.05124 -61.7801 -21.3815
LeftHand  -0.0889736 7.71698 -2.16872
RightShoulder  -0.264965 -4.42264 21.5926
RightArm  -11.7204 -3.08302 35.9555
RightForeArm  13.8643 74.2642 46.3591
RightHand  -0.340581 4.46813 -4.29011
LeftUpLeg  -11.7436 17.1171 23.0966
LeftLeg  -1.79789 -29.2322 2.04212
LeftFoot  -1.13585 2.87166 -31.3398
LeftToes  1.81866e-011 -6.13092e-011 2.52013e-011
351
root  -25.3707 34.5756 3.3045 172.937 58.5977 166.089
RightUpLeg  -43.8939 -20.4008 -12.3373
RightLeg  55.4232 -0.337813 -0.954045
RightFoot  -14.7359 -0.0335015 2.20391
RightToes  -1.81608e-008 0 -3.6325e-017
Spine  22.7959 -0.793622 -11.9542
Spine1  -7.03897 -4.03208 9.76204
HEad  -21.7598 -15.9856 4.36745
LeftShoulder1  0.232341 2.58158 -18.5885
LeftArm  -0.257862 -19.423 -49.5156
LeftForeArm  3.00753 -61.6347 -21.2404
LeftHand  -0.0997814 7.68768 -2.78291
RightShoulder  -0.22533 -4.30512 20.7845
RightArm  -12.0002 -1.74651 36.5575
RightForeArm  14.1102 74.2548 46.2528
RightHand  -0.303584 4.32063 -3.90863
LeftUpLeg  -10.1634 17.1817 23.5655
LeftLeg  -1.31912 -28.6762 1.79962
LeftFoot  -1.838 2.65801 -31.1238
LeftToes  1.81866e-011 -6.13092e-011 2.52013e-011
352
root  -24.9212 34.441 3.53288 171.493 59.6947 165.14
RightUpLeg  -43.7418 -18.7187 -12.238
RightLeg  56.9759 -0.503644 -1.28048
RightFoot  -16.6016 -0.00837542 2.28483
RightToes  -1.81608e-008 0 -3.6325e-017
Spine  23.4203 -1.51111 -8.56705
Spine1  -7.2282 -3.99001 7.79669
HEad  -22.1912 -15.1435 3.59699
LeftShoulder1  0.233537 2.58327 -18.7519
LeftArm  -0.940666 -18.8523 -49.6905
LeftForeArm  2.99703 -61.2211 -20.8362
LeftHand  -0.0989315 7.04955 -3.80767
RightShoulder  -0.232982 -4.34233 20.4584
RightArm  -11.9027 -0.449372 36.6688
RightForeArm  14.3854 74.3361 46.5887
RightHand  -0.318862 4.07249 -4.18076
LeftUpLeg  -8.81888 17.4511 24.3987
LeftLeg  -0.307873 -28.3094 1.42455
LeftFoot  -2.31193 2.39506 -29.531
LeftToes  1.81866e-011 -6.13092e-011 2.52013e-011
